<?xml version="1.0" encoding="utf-8"?>
<!-- Generator: Adobe Illustrator 19.2.1, SVG Export Plug-In . SVG Version: 6.00 Build 0)  -->
<svg version="1.1" id="Layer_1" xmlns="http://www.w3.org/2000/svg" xmlns:xlink="http://www.w3.org/1999/xlink" x="0px" y="0px"
	 viewBox="0 0 512 512" style="enable-background:new 0 0 512 512;" xml:space="preserve">
<style type="text/css">
	.st0{fill:#29ABE2;}
	.st1{fill:#FFFFFF;stroke:#FFFFFF;stroke-width:10;stroke-miterlimit:10;}
</style>
<circle class="st0" cx="256.3" cy="257.3" r="241.9"/>
<g>
	<path class="st1" d="M276.8,288.8c0.5,4.6,1,9.3,1.5,13.8c-1.9,6.1-3,12,0.7,17.9c2.2,5.1,4.4,10.1,2.2,15.7
		c-2.9,0-4.4,1.4-4.4,4.2c-3.2,19.6-4.6,39.7-10,58.7c-1.7,5.7-6.2,11-9.8,16c-2,2.7-3.7,1.2-4.6-1.5c-3.9-2.9-2.2-5.9-0.2-8.9
		c5.1-16.7,4.6-34.1,5.7-51.3c1.9-27.5,7.9-55,3.5-82.9c-3.7-23.3-7.4-46.2-13.3-69.2c-4.1-16-11.1-32.6-9.8-50.6
		c1-13.8-4.2-28-3.7-42.4l4.6-0.5l-0.3,0.7l0.2-0.7c-0.7,2-0.5,3.9,1.5,5.1c0.3,1.7,0.7,3.5,1,5.2c-1,2.5-1,4.7,1.7,6.1
		c3.2,4.4,3.9,9.6,4.6,14.7c-0.3,4.4,1.2,8.8,3.9,12.2c1,4.7,2.2,9.6,3.2,14.3c-0.8,2.4-1,4.6,1.7,6.1c3.2,5.6,5.1,11.8,5.6,18.2
		c-2,2.5-1.9,4.7,0.8,6.6l1.5,6.9c-1.9,4.6,0.7,7.8,3.2,11l1.2,9.3c-1.9,1.7-1.2,3,0.7,4.2c0.3,1.9,0.7,3.7,0.8,5.4
		c-0.7,2.4-0.8,4.4,1.5,5.9c4.1,12.3,5.4,25.5,4.1,38.5C273.7,281.7,273.6,285.4,276.8,288.8"/>
	<path class="st1" d="M340.1,244.4c-1.9,6.2-0.2,12.3-7.8,13c2.4-25-14.3-43.4-22.3-66.2c7.4-0.8,10.5,3.4,12.3,8.1
		c8.8,21.3,22.6,39.7,36.8,57.2c15.5,19.4,36.3,33.8,59.9,41.2c5.1,1.5,10.5,1.2,15.5-0.5c3.5-1,6.9-1,9.3,1.9
		c3,3.5-1.2,6.2-2.2,8.8c-1.7,4.2-4.7,0.3-7.4-0.3c-6.1-1.5-12.8-6.1-17,3.5c-1.2,2.5-4.7,2-7.3,1.5c-4.6-0.8-2.2-4.1-1.5-6.1
		c1.2-3.9-0.8-5.9-4.1-6.6c-15-3.9-26.3-13.3-37-24c-1.9-1.9-4.4-5.2-6.2-3.7c-14.5,11.3-6.8-2.5-8.1-6.8
		C350.9,257.9,345.8,251.8,340.1,244.4"/>
	<path class="st1" d="M150.2,261.8c6.4-8.1,13-16.4,19.4-24.5c4.4-5.1,7.6-11.1,8.9-17.7c1-6.1-0.5-13.7,10.6-12.3
		c4.1,0.5,4.9-6.8,6.9-10.6c1.4-2.9,3.2-5.2,6.4-5.7c1.9-0.2,3.7,1,4.2,2.9c1.4,3.5-0.8,5.4-2.9,7.8c-10.5,12.7-20.1,26-28.4,40.2
		c-5.6,9.3-14.5,15.9-22.8,22.8L150.2,261.8"/>
	<path class="st1" d="M129.9,283.7c3.5,1.5,2.9,4.2,0.8,5.9c-9.6,8.1-14.3,18.2-16.5,30.5c-0.5,2.9-2.5,9.6-8.8,7.9
		c-6.9-1.9-4.4-7.3-3.2-12c3.5-14.5,14.5-23.1,25.7-31.6C128.4,284.2,129.1,283.9,129.9,283.7"/>
	<path class="st1" d="M252.1,404.7c-2,3-3.5,6.1,0.2,8.9c-8.4,0.8-18.2,8.8-23.8-4.6c-1.7-4.1-4.1-8.1,0.8-13
		C232.6,411.8,242.9,406.8,252.1,404.7"/>
	<path class="st1" d="M239.1,107.9l-4.7,0.5c-1.7-4.4-3.5-8.8,1.4-13.2C239.1,99.2,238.1,103.8,239.1,107.9"/>
	<path class="st1" d="M279,320.5c-3.5-5.9-2.7-11.8-0.7-17.9C280.7,308.5,279.8,314.4,279,320.5"/>
	<path class="st1" d="M276.8,288.8c-3.2-3.5-3-7.3-0.5-11C278,281.2,278.1,285.2,276.8,288.8"/>
	<path class="st1" d="M142.8,275.8c-1.5,3.4-2.9,7.4-7.9,7.8c-1.4,0-2.4-1.2-2.4-2.5c0-0.2,0-0.3,0.2-0.5c1-4.1,4.2-7.1,8.3-7.9
		C142.3,272.1,143.3,273.6,142.8,275.8"/>
	<path class="st1" d="M251.8,151.2c-2.9-3.4-4.2-7.8-3.9-12.2C250.8,142.6,252.8,146.5,251.8,151.2"/>
	<path class="st1" d="M267.8,214.5c-2.5-3.2-5.1-6.6-3.2-11.1C266.7,206.8,269,210.1,267.8,214.5"/>
	<path class="st1" d="M263.1,196.5c-2.7-1.9-3-4.1-0.8-6.6C264.3,191.9,264,194.3,263.1,196.5"/>
	<path class="st1" d="M149,269c-1.2,2.7-3.2,6.4-6.1,4.2c-3.7-2.9,0.2-5.6,2.4-7.8L149,269"/>
	<path class="st1" d="M243.4,124.4c-2.7-1.5-2.7-3.7-1.7-6.1C243.4,119.7,244,122.2,243.4,124.4"/>
	<path class="st1" d="M240.7,112.9c-2-1.2-2.2-3-1.5-5.1C241,109,241.8,110.7,240.7,112.9"/>
	<path class="st1" d="M276.6,340.4c0-3,1.5-4.2,4.4-4.2C281,339.1,278.3,339.3,276.6,340.4"/>
	<path class="st1" d="M272.2,239.3c-2.4-1.5-2.2-3.7-1.5-5.9C272.6,234.8,273.2,237.3,272.2,239.3"/>
	<path class="st1" d="M269.9,228c-2-1-2.5-2.4-0.7-4.2c1.4,0.7,1.9,2.2,1.2,3.5C270.2,227.5,270,227.9,269.9,228"/>
	<path class="st1" d="M256.7,171.7c-2.7-1.5-2.5-3.5-1.7-6.1C256.9,167.1,257.5,169.6,256.7,171.7"/>
	<path class="st1" d="M150.2,261.8l2.7,2.7C150,265.5,149,264.7,150.2,261.8"/>
	<path class="st1" d="M149,269l-3.7-3.5C148.8,264.3,150.2,265.5,149,269"/>
</g>
</svg>
