<?xml version="1.0" encoding="utf-8"?>
<!-- Generator: Adobe Illustrator 19.2.1, SVG Export Plug-In . SVG Version: 6.00 Build 0)  -->
<svg version="1.1" id="Layer_1" xmlns="http://www.w3.org/2000/svg" xmlns:xlink="http://www.w3.org/1999/xlink" x="0px" y="0px"
	 viewBox="0 0 512 512" style="enable-background:new 0 0 512 512;" xml:space="preserve">
<style type="text/css">
	.st0{fill:#FFFFFF;}
</style>
<g>
	<path class="st0" d="M31.3,22.3c3.8,152.7,7.6,305.6-2.4,458c-0.2,2.5-0.2,5.2,1.3,7.1c1.7,2.1,4.6,2.3,7.2,2.1
		c13.3-0.6,294.9-13.3,422.3,1.6c9.4,1.1,19.5,2.1,28-2.3c11.8-6.1-6-158.1-9.2-199.9c-6.6-85.3,5.3-240.4,3.3-255.8
		c-2-15.3,1.8-11.8-2-15.3c-2.4-2.2-75.9,1.1-109.3,5c-111,12.9-223.4,12.5-334.3-1.2"/>
	<g>
		<path d="M26.8,22.3c2.4,95.3,4.8,190.6,3.8,285.9c-0.5,47.5-1.8,94.9-4.4,142.3c-0.3,6-0.7,11.9-1,17.9
			c-0.3,5.3-1.4,11.1-0.6,16.4c1.1,7.1,6.8,9.4,13.3,9.2c3.4-0.1,6.8-0.3,10.1-0.4c41.1-1.7,82.1-3,123.2-3.9
			c60.6-1.3,121.3-1.9,181.9-0.4c27.4,0.7,54.7,1.7,82,4c5.9,0.5,11.8,1,17.7,1.6c7.9,0.8,15.8,2.2,23.7,1.5
			c5.2-0.5,12.9-1.4,16-6.3c1.2-1.9,1.8-4.3,2.2-6.5c1.5-7.9,1.4-16,1.4-24c-0.1-11.7-0.7-23.4-1.4-35c-1.7-27.1-4.2-54.2-6.7-81.3
			c-2-21.1-4.4-42.2-5.7-63.4c-1.9-31.5-1.6-63.1-0.9-94.6c0.7-31,1.9-62,3.2-93c0.8-18.6,2.4-37.5,1.9-56.1
			c-0.1-4.1-1-8.2-0.8-12.3c0.1-3,0.9-5.7-1.9-8.5c-4.5-4.5-14.5-2.8-20.2-2.7c-28.4,0.4-57,2-85.3,4.8
			c-44.2,4.3-88.2,8.6-132.7,9.7c-47,1.2-94,0.1-140.8-3.3c-22.9-1.7-45.8-4-68.7-6.8c-5.7-0.7-5.7,8.3,0,9
			c91.3,11.3,183.7,13.6,275.4,6.8c35.2-2.6,70.2-7.3,105.4-9.3c13.9-0.8,27.9-1.5,41.8-1.8c4.8-0.1,9.6-0.2,14.4-0.1
			c1.4,0,2.9,0.2,4.3,0.2c1.2,0-0.1,0.1,0.4,0c0.9-0.1-1.3-0.9-0.4-0.1c1.3,1.3,0-1.2-0.3-1.6c0,0,0.1-0.5-0.1,0.6
			c-0.5,3.2-0.4,6.5,0,9.8c0.3,2.6,0.5,5.1,0.5,7.7c0.1,7.6-0.3,15.2-0.6,22.7c-1,26.4-2.3,52.8-3.2,79.2
			c-2,55.9-3.3,111.9,1.9,167.7c4.6,49.2,10.6,98.6,11.5,148c0.1,7.7,0.3,16.7-0.7,23.8c-0.2,1.2-0.4,2.5-0.7,3.7
			c-0.1,0.5-0.2,0.9-0.4,1.4c-0.4,1.1-0.3-0.4-0.2,0.5c0,0.7-0.1,0.1,0,0c-0.6,0.2,0.6-0.4,0.5-0.3c-0.8,0.1-2,0.9-2.9,1.2
			c-4.9,1.7-10.2,1.7-15.4,1.3c-12.4-0.8-24.8-2.6-37.3-3.5c-12.9-1-25.8-1.7-38.8-2.3c-58.8-2.6-117.8-2.5-176.6-1.6
			c-48.2,0.7-96.3,2-144.5,3.8c-10.5,0.4-21,0.9-31.4,1.3c-0.4,0-0.8,0-1.2,0c-2.8,0-3.6-0.2-4.1-3.2c-0.4-2.5,0.4-5.9,0.5-8.5
			c0.7-11.6,1.4-23.2,2-34.8c1.2-23.2,2-46.4,2.7-69.6c2.5-93,1.1-186-1-278.9c-0.5-22.6-1.1-45.2-1.6-67.7
			C35.7,16.5,26.7,16.5,26.8,22.3L26.8,22.3z"/>
	</g>
</g>
<g>
	<path id="XMLID_162_" d="M425.3,236.9c-3.9,0-7.3,0-10.6,0c-40.1,0.6-80.5,1.4-120.6,2.2c-28.3,0.4-56.4,1.2-84.7,1.4
		c-20.8,0.2-41.5-0.4-62.3-0.2c-15.7,0-31.6,0.6-47.3,1c-4.3,0.2-8.8,0.4-13,0.4c-3.5,0.2-5.1-1.6-4.9-5.1c0.2-4.7,0.2-9.6,0.2-14.3
		c0-3.5,2-4.9,4.9-4.9c6.7-0.2,13.4-0.2,20.2-0.2c17.7,0,35.4-0.2,53.2-0.2c13.6,0,27.1,0.2,40.7,0.2c9.6,0.2,19.3,0.2,28.9,0.6
		c2.4,0,3.5-0.8,3.5-3.5c-0.6-12.6-1-25.1-1.4-37.7c-0.4-12.4-0.4-24.8-0.6-37.3c-0.4-19.6-0.8-38.9-1-58.5c0-1.2,1.8-3.7,3.1-3.7
		c9.6-0.2,18.9-0.4,28.5-0.2c5.1,0.2,6.1,2.4,3.1,6.5c-5.1,6.7-6.5,13.8-5.7,22.2c0.8,7.9,0.2,16.1,0.4,24c0.4,21.6,1,43.2,1.4,65
		c0.2,5.3,0.2,10.6,0,15.7c-0.2,3.5,0.8,4.9,4.7,4.9c33.6-0.4,67.2-0.8,100.8-1c17.5-0.2,35,0.2,52.8,0.2c3.3,0,4.7,1.2,4.9,4.1
		C424.9,224.7,425.1,230.6,425.3,236.9z"/>
	<path id="XMLID_150_" d="M427.6,393.4c0,3.7,0.2,7.5,0,11.2c-0.2,4.7-1,9.4-1.2,14.3c-0.2,6.1-3.1,11-9.2,12.4
		c-6.1,1.4-12.6,2.6-18.9,2.2c-25.3-1.6-50.3-3.7-75-9.8c-6.7-1.6-13.2-4.5-20-6.7c-13.8-4.5-18.5-15.9-19.1-28.5
		c-0.8-27.9-0.6-55.6-0.8-83.5c0-12-0.2-24-0.4-35.8c0-2-0.4-4.3-0.8-6.3c-1.6-7.7-1-8.8,6.7-9.8c2.6-0.4,5.3-0.4,7.9-0.2
		c9.2,0.6,11.2,3.1,11,12.2c0,8.6,0.4,17.3,0.6,25.9c0.2,13.6,0.4,27.5,0.6,41.1c0.2,15.3,0.4,30.3,0.8,45.6
		c0.2,9,4.3,15.1,12.6,19.1c18.3,9,37.9,12.4,58,13.2c7.7,0.4,15.5,1.2,23,1.4c4.1,0,7.5-1.6,11.4-3.5c6.7-3.3,6.9-10,10.4-14.7
		C426.1,393.4,426.8,393.4,427.6,393.4z"/>
	<path id="XMLID_148_" d="M91.5,434.9c4.9-3.1,9.8-6.1,14.7-9.2c7.1-4.7,14.7-9.2,21.4-14.5c10.8-8.8,21.4-17.7,31.4-27.5
		c5.7-5.7,10.6-12.8,14.5-20.2c6.9-12.8,12.6-26.3,16.5-40.3c3.3-11.6,4.3-23.4,4.5-35.4c0-9.2,1-18.3,1.4-27.5
		c0.2-3.9,0.6-6.9,5.3-7.1c3.5-0.2,6.9-1,10.2-0.6c4.5,0.6,6.1,4.3,6.3,8.1c0.6,12.6,1.6,25.3,1.2,37.9
		c-0.8,25.1-8.6,48.5-21.6,69.7c-11,17.7-24.4,33.6-42.4,45.2c-15.9,10.4-33.6,16.1-51.5,21.2c-2.4,0.6-4.5,1.8-6.9,2.2
		c-1.2,0.2-2.9-0.2-4.3-0.2C91.7,436.3,91.5,435.5,91.5,434.9z"/>
	<path id="XMLID_139_" d="M394.6,113.9c-11.2,10.2-22.2,20.4-33.4,30.3c-15.3,13.6-30.8,27.1-46.2,40.5c-2.2,2-4.3,4.1-6.5,6.1
		c-4.1,3.7-8.6,3.5-13.4-0.8c4.3-5.3,9-10.2,12.8-15.7c8.8-12.2,17.5-24.6,26.1-37.3c3.9-5.7,7.1-11.6,11.2-17.1
		c1.4-2,4.5-3.7,6.9-3.9c12.2-2,24.6-3.5,37.1-5.1c1.8-0.2,3.9,0.6,5.7,1C394.8,112.7,394.8,113.3,394.6,113.9z"/>
	<path id="XMLID_137_" d="M198.8,188.5c-5.7,2.4-9.6,1.2-13.8-2c-24.4-19.1-49.1-38.3-73.5-57.2c-3.7-2.9-7.7-5.7-11.6-8.4
		c-1.4-1-3.3-1.6-4.7-2.4c0.4-0.6,1-1.2,1.4-1.8c0.6-0.2,1-0.6,1.6-0.6c9.2,0,18.3-0.2,27.5,0.2c2,0,4.5,1.2,5.9,2.6
		c20.2,20.2,40.1,40.5,60.1,60.9C194.2,181.9,196.2,185.2,198.8,188.5z"/>
</g>
</svg>
