<?xml version="1.0" encoding="utf-8"?>
<svg version="1.1" id="Layer_1" xmlns="http://www.w3.org/2000/svg" xmlns:xlink="http://www.w3.org/1999/xlink" x="0px" y="0px"
	 viewBox="0 0 625 502.9" style="enable-background:new 0 0 625 502.9;" xml:space="preserve">
<g>
	<g>
		<g>
			<path id="XMLID_161_" d="M188.6,26c-1,1.7-2.1,3-2.5,4.5c-0.5,1.6-0.5,3.4-0.4,5.1c0.2,3.3,0.6,6.5,0.9,9.8
				c0.1,1-0.1,2.1-0.1,3.1c0,8.4,0,16.8-0.1,25.2c0,5.5-0.3,11.1-0.3,16.6c0,6.7,0.3,13.5,0.4,20.2c0.3,11.3,0.6,22.6,1,33.9
				c0.2,5.4,0.7,10.8,1,16.3c0.1,1.7-0.4,3.5-0.3,5.3c0.1,4.5,0.6,9.1,0.6,13.6c0,5.5-0.3,10.9-0.6,16.4c-0.2,2.8-3.1,5.6-5.9,5.7
				c-5.1,0.3-10.1,0.3-15.2,0.3c-1.9,0-3.9,0.3-5.7-0.1c-1.8-0.4-4.9-1.5-5-2.5c-0.2-2.3,0.7-4.9,2-6.9c1.4-2.1,3.9-2.9,6.6-2.7
				c2.3,0.1,4.7,0.1,6.9-0.4c4.4-1,6-3.7,5.9-8.2c-0.2-7.9-0.1-15.8-0.2-23.7c-0.1-5.5-0.5-10.9-0.6-16.4c-0.1-3.2,0.3-6.4,0.3-9.6
				c-0.1-3.2-0.6-6.3-0.6-9.5c-0.1-9.7,0.2-19.4,0-29.1c-0.1-7.3-0.9-14.6-1-21.9c-0.1-6.4,0.2-12.8,0.2-19.3c0-3.3-0.3-6.6-0.3-9.9
				c0-5.1,0.2-10.1,0.3-15.2c0-1.6,1-2.1,2.5-2.2C181.8,24.1,185.1,24.2,188.6,26z"/>
			<path id="XMLID_145_" d="M99.8,156.7c0.8-0.5,1.7-0.9,2.5-1.5c3.6-2.4,6.2-5.8,8.2-9.6c2-3.9,4.2-7.7,5.9-11.6
				c2.2-4.9,2.9-10.3,3.2-15.7c0.4-6.1,0.5-12.2,0.8-18.3c0-0.2,0-0.5,0-0.7c-0.6-5.8,0.5-6.9,6.2-6.6c0.5,0,1,0.1,1.4,0.1
				c4.1,0,4.5,0,4.5,4.2c0.2,6.6,0.4,13.1-0.6,19.8c-0.9,5.8-2,11.3-4.4,16.5c-3.4,7-7.8,13.4-14.8,17.5c-3.5,2.1-7,4.2-10.5,6.3
				c-0.5,0.3-1,0.4-1.5,0.5C100.4,157.4,100.1,157.1,99.8,156.7z"/>
			<path id="XMLID_141_" d="M258,154c-4.8-1.9-9.6-3.4-12.8-8.2c-3.6-5.4-7.3-10.8-9.3-17c-1.8-5.7-3.3-11.6-4.4-17.5
				c-1-5.1-1.4-10.3-2-15.5c-0.3-2.6,0.5-3.7,3.2-3.8c1.8-0.1,3.7,0.1,5.5,0.5c2.4,0.5,3.6,2.3,3.7,4.7c0.2,5.5,0.1,11.1,0.5,16.6
				c0.5,8.5,2,16.7,6,24.3c2.2,4.1,4.3,8.2,6.7,12.2C255.7,151.8,256.9,152.8,258,154z"/>
		</g>
		<g>
			<path id="XMLID_149_" d="M357.8,201.1c0.9-1,1.3-1.5,1.8-1.9c5.5-4.1,8.9-9.9,11.9-15.9c4.1-8.2,6.3-17.1,8.3-26
				c2.7-12,3.2-24.1,2.9-36.4c-0.4-11.2-0.7-22.3-1-33.5c-0.2-10.8,0-21.5-0.6-32.3c-0.4-7.5,1.4-6.2,6.3-6.3c4-0.1,4.4,0.5,4.5,4.4
				c0.4,13.9,1,27.8,1.4,41.8c0.2,7-0.2,14-0.2,21c0,3.7,0.2,7.3,0.3,11c0.3,11.9,0,23.6-4.7,35c-3.5,8.6-7.9,16.6-12.9,24.4
				c-4,6.3-10.1,10.3-16,14.5C359.4,201,358.9,200.9,357.8,201.1z"/>
			<path id="XMLID_147_" d="M516.4,113.6c-0.6,0.1-1.3,0.1-1.9,0.2c-3.9,0.3-4.4-0.2-4.3-4c0-7.5-0.2-14.9-0.2-22.4
				c0-8.8,0.1-17.6,0.1-26.5c0-3.8,0-7.7,0.1-11.5c0-2.2,0.9-3.1,3.3-2.8c2.3,0.3,4.6-0.1,7-0.2c1.9-0.1,2.8,0.4,2.7,2.6
				c-0.1,7.1,0,14.1,0,21.2c0,10.4,0,20.8,0,31.3c0,3,0.1,6-0.1,9c-0.2,3.2-0.7,3.5-3.9,3.4C518.2,113.7,517.3,113.7,516.4,113.6
				C516.4,113.7,516.4,113.6,516.4,113.6z"/>
			<path id="XMLID_144_" d="M501.3,56.5c-11.4,0-22.7-0.1-34.1,0c-9.4,0.1-18.8,0.4-28.2,0.7c-12.1,0.3-24.1,0.5-36.2,1
				c-3.1,0.1-2.5-1.9-2.9-3.6c-0.5-2.2,0.7-3.2,2.6-3.3c2.3-0.2,4.6-0.1,7-0.1c11.2-0.1,22.3-0.2,33.5-0.3
				c9.2-0.1,18.3-0.1,27.5-0.5c7.1-0.3,14.2-1.1,21.4-1.5c2.7-0.1,5.4,0.2,8.2,0.4c1.8,0.1,2.3,1.2,2.1,2.8
				C501.9,53.3,501.6,54.5,501.3,56.5z"/>
			<path id="XMLID_140_" d="M415.8,108.6c-4.2,0-8.4-0.2-12.5,0.1c-2.4,0.1-3-1.2-3.1-3c-0.1-1.7,0.9-2.4,2.7-2.5
				c7.6-0.3,15.2-0.9,22.9-1.1c6.5-0.1,13,0.5,19.4,0.5c4,0,8-0.5,11.9-0.7c8.6-0.3,17.2-0.5,25.8-0.7c5.5-0.1,11-0.2,16.6-0.4
				c1.6,0,2.7,0.3,2.7,2.2c0,1.9-0.6,3.1-2.8,3.1c-2.3,0-4.5,0.1-6.8,0.3c-4.4,0.3-8.8,0.9-13.2,1c-5.4,0.1-10.7-0.3-16.1-0.2
				c-13.4,0.2-26.7,0.5-40.1,0.7c-2.5,0-5,0-7.5,0C415.8,108.3,415.8,108.5,415.8,108.6z"/>
			<path id="XMLID_138_" d="M397.9,38.4c1.9-0.4,3.8-0.8,5.7-1.3c4.6-1.1,9.2-2.2,13.7-3.4c9.9-2.5,19.8-5.1,29.8-7.7
				c1.9-0.5,3.8-0.9,5.7-1.1c1.3-0.2,2.6,0,3.9,0c0.7-0.4,1.5-1.1,2.4-1.4c4.8-1.7,8.2,0.5,11.7,4.5c-2.2,0.9-4,1.8-6,2.3
				c-10.1,2.5-20.3,4.8-30.4,7.2c-8.2,1.9-16.4,3.8-24.6,5.8C404.8,44.4,400.3,42.8,397.9,38.4z"/>
		</g>
		<g>
			<path id="XMLID_162_" d="M526.3,378.2c-1.9,0-3.6,0-5.2,0c-19.7,0.3-39.5,0.7-59.2,1.1c-13.9,0.2-27.7,0.6-41.6,0.7
				c-10.2,0.1-20.4-0.2-30.6-0.1c-7.7,0-15.5,0.3-23.2,0.5c-2.1,0.1-4.3,0.2-6.4,0.2c-1.7,0.1-2.5-0.8-2.4-2.5
				c0.1-2.3,0.1-4.7,0.1-7c0-1.7,1-2.4,2.4-2.4c3.3-0.1,6.6-0.1,9.9-0.1c8.7,0,17.4-0.1,26.1-0.1c6.7,0,13.3,0.1,20,0.1
				c4.7,0.1,9.5,0.1,14.2,0.3c1.2,0,1.7-0.4,1.7-1.7c-0.3-6.2-0.5-12.3-0.7-18.5c-0.2-6.1-0.2-12.2-0.3-18.3
				c-0.2-9.6-0.4-19.1-0.5-28.7c0-0.6,0.9-1.8,1.5-1.8c4.7-0.1,9.3-0.2,14-0.1c2.5,0.1,3,1.2,1.5,3.2c-2.5,3.3-3.2,6.8-2.8,10.9
				c0.4,3.9,0.1,7.9,0.2,11.8c0.2,10.6,0.5,21.2,0.7,31.9c0.1,2.6,0.1,5.2,0,7.7c-0.1,1.7,0.4,2.4,2.3,2.4c16.5-0.2,33-0.4,49.5-0.5
				c8.6-0.1,17.2,0.1,25.9,0.1c1.6,0,2.3,0.6,2.4,2C526.1,372.2,526.2,375.1,526.3,378.2z"/>
			<path id="XMLID_150_" d="M527.4,455c0,1.8,0.1,3.7,0,5.5c-0.1,2.3-0.5,4.6-0.6,7c-0.1,3-1.5,5.4-4.5,6.1s-6.2,1.3-9.3,1.1
				c-12.4-0.8-24.7-1.8-36.8-4.8c-3.3-0.8-6.5-2.2-9.8-3.3c-6.8-2.2-9.1-7.8-9.4-14c-0.4-13.7-0.3-27.3-0.4-41
				c0-5.9-0.1-11.8-0.2-17.6c0-1-0.2-2.1-0.4-3.1c-0.8-3.8-0.5-4.3,3.3-4.8c1.3-0.2,2.6-0.2,3.9-0.1c4.5,0.3,5.5,1.5,5.4,6
				c0,4.2,0.2,8.5,0.3,12.7c0.1,6.7,0.2,13.5,0.3,20.2c0.1,7.5,0.2,14.9,0.4,22.4c0.1,4.4,2.1,7.4,6.2,9.4c9,4.4,18.6,6.1,28.5,6.5
				c3.8,0.2,7.6,0.6,11.3,0.7c2,0,3.7-0.8,5.6-1.7c3.3-1.6,3.4-4.9,5.1-7.2C526.7,455,527,455,527.4,455z"/>
			<path id="XMLID_148_" d="M362.4,475.4c2.4-1.5,4.8-3,7.2-4.5c3.5-2.3,7.2-4.5,10.5-7.1c5.3-4.3,10.5-8.7,15.4-13.5
				c2.8-2.8,5.2-6.3,7.1-9.9c3.4-6.3,6.2-12.9,8.1-19.8c1.6-5.7,2.1-11.5,2.2-17.4c0-4.5,0.5-9,0.7-13.5c0.1-1.9,0.3-3.4,2.6-3.5
				c1.7-0.1,3.4-0.5,5-0.3c2.2,0.3,3,2.1,3.1,4c0.3,6.2,0.8,12.4,0.6,18.6c-0.4,12.3-4.2,23.8-10.6,34.2c-5.4,8.7-12,16.5-20.8,22.2
				c-7.8,5.1-16.5,7.9-25.3,10.4c-1.2,0.3-2.2,0.9-3.4,1.1c-0.6,0.1-1.4-0.1-2.1-0.1C362.5,476.1,362.4,475.7,362.4,475.4z"/>
			<path id="XMLID_139_" d="M511.2,317.8c-5.5,5-10.9,10-16.4,14.9c-7.5,6.7-15.1,13.3-22.7,19.9c-1.1,1-2.1,2-3.2,3
				c-2,1.8-4.2,1.7-6.6-0.4c2.1-2.6,4.4-5,6.3-7.7c4.3-6,8.6-12.1,12.8-18.3c1.9-2.8,3.5-5.7,5.5-8.4c0.7-1,2.2-1.8,3.4-1.9
				c6-1,12.1-1.7,18.2-2.5c0.9-0.1,1.9,0.3,2.8,0.5C511.3,317.2,511.3,317.5,511.2,317.8z"/>
			<path id="XMLID_137_" d="M415.1,354.4c-2.8,1.2-4.7,0.6-6.8-1c-12-9.4-24.1-18.8-36.1-28.1c-1.8-1.4-3.8-2.8-5.7-4.1
				c-0.7-0.5-1.6-0.8-2.3-1.2c0.2-0.3,0.5-0.6,0.7-0.9c0.3-0.1,0.5-0.3,0.8-0.3c4.5,0,9-0.1,13.5,0.1c1,0,2.2,0.6,2.9,1.3
				c9.9,9.9,19.7,19.9,29.5,29.9C412.8,351.2,413.8,352.8,415.1,354.4z"/>
		</g>
		<g>
			<path id="XMLID_163_" d="M210.9,336.4c7.1,0,13.9,0,20.8,0c3.5,0,7.1-0.2,10.6-0.3c2.9-0.1,3.9,0.6,4.1,3.5
				c0.1,2.1-0.1,4.2-0.4,6.2c-0.1,0.6-1.3,1.5-2,1.5c-5.4,0.3-10.8,0.3-16.2,0.5c-5,0.1-10,0.3-15,0.4c-2,0-2.4,0.7-2.3,2.8
				c0.4,5.6,0.3,11.3,0.4,16.9c0.2,8.6,0.4,17.2,0.5,25.8c0,7.1-0.3,14.3-0.1,21.4c0.1,5.7,0.8,11.4,1,17c0.1,6-0.1,12-0.1,18.1
				c0,4.7,0.1,9.3,0.1,14c0.1,4.4,0.2,8.8,0.3,13.2c0,1.5-0.7,2.5-2.3,2.5c-2.3,0.1-4.6,0-6.9,0.1c-2.4,0.1-3.4-0.9-3.3-3.3
				c0.2-5.1,0.3-10.2,0.3-15.4c0-5-0.3-9.9-0.3-14.9c-0.1-8.7,0-17.3-0.1-26c-0.1-5.9-0.5-11.7-0.5-17.6c0-10.7,0.2-21.4,0.1-32.1
				c0-5.8-0.3-11.7-0.5-17.5c0-1,0-2.1-0.1-3.1c-0.2-2.5-0.8-2.9-3.3-2.8c-7.1,0.2-14.1,0.3-21.2,0.4c-2.4,0.1-4.8,0.3-7.2,0.4
				c-2,0.1-3.2-0.5-3.2-2.8c0-2.5-0.4-5-0.4-7.4c0-0.4,1.1-1.2,1.7-1.2c10.5-0.1,21-0.2,31.5-0.2c1.7,0,2.2-0.7,2.2-2.3
				c-0.1-5.9-0.1-11.9-0.2-17.8c-0.1-3.8-0.1-7.7-0.4-11.5c-0.2-3,0.5-3.7,3.5-3.7c3.1,0.1,6.1-0.1,9.2,0c1.9,0,2.9,1.5,2,2.8
				c-2.6,3.7-2.6,7.6-2.3,11.9c0.3,4.6-0.3,9.3-0.3,14C210.5,331.9,210.7,334,210.9,336.4z"/>
			<path id="XMLID_146_" d="M259.9,449.7c-1,0.1-1.5,0.3-2,0.1c-5.6-2.1-10.9-4.2-14.7-9.5c-3.2-4.5-6.4-8.9-8.1-14.1
				c-2.3-6.9-4.3-13.8-4.1-21.2c0.1-4.6-0.4-9.2-0.6-13.8c-0.1-2.7-0.3-5.5-0.3-8.2c0-3.5,0.7-5,4-5.8c4.4-1,8.3,0,7.8,5.7
				c-0.5,7-1.2,14-0.1,21.1c0.3,1.7-0.1,3.5,0.1,5.3c0.6,8.9,2,17.7,6.7,25.6c1.8,3,3.2,6.3,5.3,9.1
				C255.3,446.1,257.6,447.6,259.9,449.7z"/>
			<path id="XMLID_143_" d="M179.2,387.8c-0.8,9.8-1,19.8-2.4,29.5c-1.4,9.9-5.7,18.9-12.9,26.1c-2.2,2.2-5.3,3.6-8,5.2
				c-0.4,0.2-1.1-0.2-1.6-0.3c0.2-0.5,0.3-1.2,0.6-1.4c4.4-2.8,6-7.5,7.7-11.9c1.9-5.2,3.3-10.6,4.5-16c0.9-3.9,1.2-7.9,1.5-11.9
				c0.5-7.4,0.7-14.9,1-22.3c0.1-1.2,0-2.4-0.1-3.6c-0.3-2.7,1.2-3.4,3.6-3.5c6.8-0.3,5.9-0.6,5.8,5.5c0,1.5,0,3.1,0,4.6
				C179,387.7,179.1,387.8,179.2,387.8z"/>
			<path id="XMLID_142_" d="M134.1,413.8c-0.6,2.5-1,5-1.7,7.4c-0.7,2.3-1.5,4.5-2.3,6.8c-0.6,1.6-1.2,3.3-2,4.8
				c-5.7,10.4-11.2,20.9-17.2,31.1c-2.4,4.1-5.7,7.7-8.6,11.6c-0.3,0.4-0.8,0.8-1.2,1.1c-2,1.4-3.4,0.8-3.5-1.7
				c-0.1-3,0.5-6.2-0.1-9.1c-0.9-5.1,1.6-8.2,4.6-11.8c6.9-8,13.3-16.3,19.9-24.5c2.1-2.6,4.2-5.2,6.1-8c1.3-1.9,2.3-3.9,3.5-5.9
				c0.5-0.8,1-1.5,1.6-2.2C133.4,413.6,133.8,413.7,134.1,413.8z"/>
			<path id="XMLID_136_" d="M99.7,317.7c13.8,10.6,28,21.5,42.2,32.4c0,0.2-0.1,0.3-0.1,0.5c-1.5-0.4-3.1-0.6-4.5-1.3
				c-8.6-4.3-17.2-8.6-25.8-13.1c-3.5-1.8-7-3.9-10.4-6c-0.7-0.4-1.4-1.5-1.4-2.3C99.6,324.4,99.7,320.8,99.7,317.7z"/>
			<path id="XMLID_135_" d="M99.5,376.2c12.5,6.2,25.1,12.4,37.7,18.6c0.6,0.3,1,1.1,2,2.3c-1.5,0-2.4,0.2-3.3,0
				c-6.2-1.5-12.5-2.9-18.7-4.6c-4.7-1.3-9.2-3.3-13.9-4.6c-4-1.2-4.4-4.2-4.3-7.5C99.2,378.8,99.4,377.3,99.5,376.2z"/>
		</g>
	</g>
	<g>
		<path id="XMLID_156_" d="M348.1,250.4c3.3,0,6.7,0,10,0c10.8,0,21.6,0,32.4,0c2.5,0,5,0.1,7.5,0.1c16.8,0.1,33.6,0.1,50.4,0.2
			c16.4,0.1,32.9,0.2,49.3,0.3c6,0,11.8-0.8,17.3-3.6c4.3-2.2,9.1-3.3,13.4-5.5c4-2.1,7.9-4.6,11.4-7.5c3.4-2.8,6.8-2.8,10.6-1.9
			c4.1,0.9,8.1,1.9,12.2,2.7c9.9,1.9,19.3,5,27.4,11.3c2.1,1.6,4.3,3.1,6.5,4.8c-1.3,4.4-5.2,6-8.5,8c-8.4,5.1-17.7,7.6-27.3,9.3
			c-5.2,0.9-10.5,1.6-15.7,2.1c-1.1,0.1-2.4-0.7-3.4-1.4c-4.7-3.2-8.9-7-13.9-9.5c-7.1-3.5-14.6-6.6-22.7-7.1
			c-7.5-0.4-15-0.2-22.5-0.2c-17,0-34,0-51-0.1c-16.5-0.1-33-0.3-49.5-0.4c-9.2-0.1-18.4-0.2-27.5-0.3c-1,0-2.1,0.3-3.1,0.2
			c-1.2-0.1-2.4-0.3-3.5-0.5C348,251.1,348.1,250.7,348.1,250.4z M538.5,263.4c-3.9-5.1-8.1-8.2-14.4-10.7c-0.5-0.2-1-0.7-1.4-1.1
			c-0.1-0.1,0.2-0.7,0.5-0.9c2.9-2.3,5.8-4.5,8.7-6.7c0.9-0.7,1.8-1.5,3.2-2.7c-7.9,3.3-15,6.2-22.1,9.2c1.4,0.4,2.7,0.5,4,0.6
			c1.2,0.1,2.5,0.3,3.7,0.5c0,0.3-0.1,0.7-0.1,1c-1.6,0-3.1,0-4.5,0C523.8,256.1,531.4,259.9,538.5,263.4z M593.2,252.8
			c-2.9-0.3-5.6-0.5-8.2,1.6c-2.8,2.2-6,3.9-9.1,5.6c-1.9,1-4,1.7-6,2.6c-1.9,0.9-3.8,1.9-5.7,2.9
			C574.7,263.1,585.3,260.9,593.2,252.8z M570,240.3c0.6,0.3,1.3,0.6,1.9,1c4.9,2.8,9.8,5.3,14.5,8.4c2.1,1.4,4,1.1,6.7,1.3
			C586.1,244.8,578.3,242,570,240.3z"/>
		<path id="XMLID_151_" d="M276.1,251c-0.7,0.1-1.4,0.2-2,0.3c-7.3,0.2-14.7,0.5-22,0.5c-9,0-18-0.3-27-0.3c-13.3-0.1-26.6,0-39.9,0
			c-20,0-40,0.2-59.9-0.3c-10.3-0.2-19.3,3.3-28.2,7.3c-4.2,1.8-8,4.4-11.8,6.9c-1.4,0.9-2.6,2.4-3.5,3.9s-1.9,1.5-3.4,1.2
			c-4.8-1.2-9.7-1.8-14.3-3.3c-8.8-2.8-17.5-5.9-26.1-9.3c-3.5-1.3-6.9-3.2-9.1-6.5c-0.3-0.5-0.3-1.7,0-2.1
			c3.1-3.8,7.4-6.1,11.8-8.2c10.2-4.8,21.2-6.5,32-9.4c4.2-1.1,7.7-0.1,11.1,3c8.2,7.4,18.3,10.8,28.8,13.5
			c10.7,2.8,21.6,1.6,32.4,1.7c9.4,0.1,18.8,0.1,28.3,0c10.9,0,21.7-0.1,32.6-0.2c20.6-0.1,41.2-0.2,61.8-0.3c2.2,0,4.4,0,6.5,0.1
			c0.8,0.1,1.5,0.5,2.3,0.8C276.3,250.5,276.2,250.8,276.1,251z M89.1,241.7c-0.1-0.2,0,0.1,0.2,0.3c2.7,3.2,5.8,5.7,9.8,7.1
			c0.7,0.2,1.2,0.9,1.8,1.4c-0.5,0.5-1,1.2-1.6,1.6c-2.8,1.7-5.7,3.3-8.4,5.1c-1.4,0.9-2.6,2.2-3.8,3.3c0.1,0.1,0.2,0.2,0.3,0.2
			c7.7-3.2,15.3-6.5,23.6-10c-2.7,0-4.8,0-6.9,0c0-0.2,0-0.4,0-0.6c1.9-0.1,3.8-0.3,5.4-0.4C102.6,247,95.7,244.3,89.1,241.7z
			 M31.3,249.1c0,0.3,0.1,0.5,0.1,0.8c1.6-0.3,3.6,0,4.7-0.9c5.9-4.9,13.1-7.1,20-9.8c3.1-1.2,6.2-2.1,9.4-3.1
			c-0.1-0.2-0.1-0.4-0.2-0.6C53.6,239.1,41.2,240.9,31.3,249.1z M62.2,264.2c0.1-0.2,0.2-0.4,0.2-0.6c-2-0.7-4-1.2-5.9-2
			c-6.2-2.6-12.9-4.3-18-8.9c-2.1-1.9-4.3-2-7.3-1.5C40.5,258.8,51.9,260.2,62.2,264.2z"/>
		<path id="XMLID_134_" d="M315.9,250.5c0,1.7-2.4,3.6-4.4,3.6c-2.4,0-5-2.6-4.9-4.7c0.1-1.4,2.9-3.5,4.6-3.5
			C313.5,245.9,315.9,248.3,315.9,250.5z"/>
	</g>
</g>
</svg>
