<?xml version="1.0" encoding="utf-8"?>
<svg version="1.1" id="Layer_1" xmlns="http://www.w3.org/2000/svg" xmlns:xlink="http://www.w3.org/1999/xlink" x="0px" y="0px"
	 viewBox="0 0 450 488" style="enable-background:new 0 0 450 488;" xml:space="preserve">
<title>logo</title>
<g>
	<g>
		<path d="M115.9,389.6c5,6.3,5.7,14.7,10.4,21.2c3.5,4.8,6.3,10.1,9.5,15.1c-4.8,0.9-6.8-2.6-9.1-5.7
			c-10.8-20.1-21.6-40.2-25.1-63.2c0.6-1.7,0.3-3.1-1.6-3.7c-4.4-0.6-5,3.5-7,5.8c-2.4,2.8-4.4,6-6.7,9c-1.2,0.4-1.9,1.6-1.6,2.8
			c-1.6,2.2-4,3.9-4.5,6.8l-0.9,2.3c-7.2,7.6-10.8,17.1-14.4,26.6c-0.9,2.4,0.4,4.2,2.5,5.4c-0.1,0.8-0.2,1.6-0.4,2.4l-3.8-0.8
			c-1.8,0.8-3.3,1.7-1.7,3.9c-0.1,6.4-0.9,12.7-2.4,18.9c-1.6,1.3-1.2,3-0.9,4.7c0.7,6.2-1,12.1-1.4,19.3
			c-6.4-6.6-6.8-13.6-5.2-20.6c0.7-2.9-0.1-5.3-0.6-7.7c-2.1-9.3,2.9-17,5-25.3c0.8-3.2,2.6-6.2,0.5-9.5c-0.1-1.2,0.6-2.3,1.8-2.8
			c5.6-3.5,6.6-10.1,9.9-15.1c6.6-10,13.3-19.9,20.6-29.4c3.5-4.3,5.8-9.5,6.6-15c1.4-11,3.1-21.9,7.6-32.1c1.3-2.9,1-6.4,1.5-9.9
			c4.1,0.4,7.1,0.7,5.4,6.5c-0.8,2.7-3.6,7.2,1.8,9.7c0.8,0.4-2.2,2.8-2.4,5.2c-0.6,5.9-1.8,11.7-2.8,17.5c-1.4,0.5-2.4,1.1-1,2.6
			c-0.2,0.9-0.4,1.8-0.6,2.7c-1.4,0.7-2,1.5-0.5,2.7c0,1.8-0.1,3.7-0.1,5.5c-1.4,1.9-1.5,3.6,0.4,5.2c0.1,0.6,0.2,1.2,0.4,1.8
			c-0.2,2.6-1.6,5.4,1.1,7.6l0.8,2.7c-1.4,1.3-0.7,2,0.6,2.6l6.7,20.8C113.9,387.8,114.1,389,115.9,389.6"/>
		<path d="M146.4,441c6.8,5.3,13.6,10.6,20.3,16.1c3.9,3.2,8.6,4.5,13.1,6c5.2,1.7,10.5,0.9,12.9-5.8c1.4-3.7,3.5-7.1,5.5-10.7
			c1.5-2.7,3.4-4.7,7-3.6c-3.5,8.8-10.1,15.9-12.6,25c-0.8,2.8-1.4,3-3.9,1.9c-3.6-1.6-7.8-4.5-10,2.1c-0.4,1.2-2.3,1.1-3.7,0.8
			c-2-0.4-1.6-1.9-1.3-3.1c0.6-2.1,1-4.1-1.6-4.9c-9.6-2.6-16.4-9.1-22.9-16.1c-1.2-1.3-2.4-2.7-4.5-2.2
			C145.1,444.7,145.7,442.9,146.4,441"/>
		<path d="M58.4,394.5c-1.1,0.4-1.9,1.5-1.8,2.8c-2.7-3.3-5.1-7.1-9.7-8.2c-1-0.1-1.7-1-1.6-2c0-0.1,0.1-0.3,0.1-0.4
			c0.3-1,1.4-1.5,2.4-1.2c0.1,0,0.2,0.1,0.4,0.2c4.3,2.8,7.7,2.7,9-4.5C60.6,386.7,55.1,390.8,58.4,394.5"/>
		<path d="M126.6,420.2c2.3,3.1,4.3,6.6,9.1,5.7v0.1c-0.5,1-1,2.1-1.4,3.1c-4.5,1,1.1,7.4-4.6,7.9L126.6,420.2"/>
		<path d="M67,414.4l0.4-2.4c3.9,1.2,7.8,3,12.2-2.2C77.3,418.8,74.4,419.4,67,414.4"/>
		<path d="M146.4,441c-0.6,1.8-1.2,3.7-1.8,5.5c-0.3,1.5-0.6,3.4-2.5,2.3s-0.6-2.9-0.1-4.5c1.8-1.2,1.5-2.1-0.3-2.8l-2-3.7l3.4-0.8
			L146.4,441"/>
		<path d="M143,437l-3.4,0.8c-2-1.8-3.6-4.2-4.4-6.8c2,0,2.7-1.2,2.8-3.1L143,437"/>
		<path d="M106.1,360.2c-2.7-2.2-1.3-5-1.1-7.6C107.1,354.9,105.8,357.6,106.1,360.2"/>
		<path d="M104.7,350.8c-1.9-1.6-1.8-3.4-0.4-5.2C105.4,347.1,105.6,349.1,104.7,350.8"/>
		<path d="M138.1,427.9c-0.1,1.8-0.8,3-2.8,3.1l-1-1.9c0.5-1,1-2.1,1.4-3.1L138.1,427.9"/>
		<path d="M58.2,441c-0.3-1.7-0.8-3.4,0.9-4.7C60,437.9,59.6,439.9,58.2,441"/>
		<path d="M61.4,417.5c-1.6-2.2,0-3.1,1.7-3.9C62.6,414.9,62,416.2,61.4,417.5"/>
		<path d="M107.5,365.5c-1.3-0.6-2-1.4-0.6-2.6C107.7,363.5,107.9,364.6,107.5,365.5"/>
		<path d="M84.6,370.9c-0.2-1.2,0.5-2.4,1.6-2.8C86.6,369.6,86.2,370.6,84.6,370.9"/>
		<path d="M105.5,334.6c-1.4-1.5-0.4-2.2,1-2.6L105.5,334.6"/>
		<path d="M115.9,389.6c-1.7-0.5-1.9-1.8-1.6-3.3C115.4,387,116,388.3,115.9,389.6"/>
		<path d="M104.4,340c-1.5-1.2-0.9-2,0.5-2.7C105.3,338.2,105.1,339.3,104.4,340"/>
		<path d="M79.2,379.9l0.9-2.3C81.4,379,80.8,379.6,79.2,379.9"/>
		<path d="M99.8,353.3c1.9,0.6,2.2,2,1.6,3.7L99.8,353.3"/>
		<path d="M141.7,441.5c1.8,0.8,2.1,1.7,0.3,2.8L141.7,441.5"/>
	</g>
	<g>
		<path d="M354.4,314.4c-8.9-0.1-17.9-0.2-26.8-0.3c-6.6,0-13.3,0-19.9-1c-2-2.1-4.3-1.9-6.6-0.5l-10.8-0.8
			c-1.9-2.3-4.5-1.3-6.8-1.4c-4.4-0.2-9.2,0.9-13.1-0.5c-4.3-1.6-5.3,0.8-7,3.2c-1.6-3.2-4.1-4.8-7.8-5.3c-3.1-0.4-6.7,0-9.8-3.9
			c10-0.9,18.6-4,28.5-2.5c14.2,2.2,28.7,2.1,43,3.1c4.3,0.3,6-1.4,6.3-5.5c0.6-6.4,1.7-12.7,2.2-19.1c0.8-10.4,0.7-10.4,10.8-13.7
			c3.6,7.4-0.2,13.6-2.6,20.3c-1.7,4.6-2.1,9.8-3.7,14.7c-0.9,2.7,1,3.6,3.3,3.3c19.3-2.1,38.9,0.7,58.2-3.8
			c9.1-2,18.5-2.7,27.8-1.9c3.8,0.2,7.4,1.4,10.5,3.6c-3.9,2.1-7.3,2.4-10.7,3c-2.9-0.3-5.6,0-7.6,2.5c-3.9,1.9-7.3,4.1-7.7,8.9
			c-1.3,0.6-2,1.3-0.8,2.6c0,1.9,0.1,3.8,0.1,5.6c-1.2,1.1-0.8,2,0.5,2.6c0.1,1.7,0.1,3.5,0.2,5.2c-2.5,2.7-2.1,6-2.2,9.3
			c0.3,2,0.2,3.9-1.3,5.5c-1.9,0.4-2.2,1.6-1.9,3.3c-0.9,5.8-8.8,8.4-7,15.6c0.2,1-1.4,1.4-2.6,1.1c-3.7-0.8-5.5-8.4-2.7-11.9
			c2.4,2.5,3.5,1.5,4-1.5c0.3-0.4,0.5-0.7,0.8-1.1c1.5-0.4,2-1.5,1.8-3c1.3-2.1,2.6-4.3,3.9-6.4c1.4-0.7,1.6-1.9,1.3-3.3
			c0.5-1.1,0.9-2.3,1.4-3.4c2.4-2.2,2.2-4.5,0.1-6.8c-1.2-2.6-1-5.3-0.8-8.1c1-0.8,1-1.6,0-2.4c-0.1-2.3-0.3-4.7-0.4-7
			c-2.3-3.2-5-3.3-8.1-1l-5.9,0.3c-5.1,1.7-10.5-1.9-15.5,1l-12,1C355.9,312.7,355,313.2,354.4,314.4"/>
		<path d="M351.8,422.9c-1.3-3-1.1-6.2-0.9-9.4c1.4-1.9,1.5-3.8-0.6-5.3c-0.7-1.7-1.5-3.2-3.8-2.6c0-0.9,0-1.9-0.1-2.8l1.3-1.1
			c2.9-3.3,0.9-5.7-1.3-8.2c-0.3-0.9-0.6-1.8-0.9-2.7c1.6-1.8,0.4-2.3-1.2-2.6c-0.4-0.1-0.6-0.4-0.7-0.8c-0.3-2.5,1.7-5.7-2-7.3
			l-0.2-0.4c-0.1-2.2-0.7-4.2-3.2-4.9c-0.1-0.9-0.3-1.8-0.5-2.7c1.1-1.1,0.6-1.9-0.6-2.5c0.3-6-3.2-11.5-2.6-17.5
			c-0.1-1.6,0.8-3,2.2-3.7l0.8,1.8c-0.4,1.5-0.3,2.8,1.3,3.5l5.4,11.2c-0.4,2.1-0.9,4.2,2.1,4.9c3.2,1.4,5,4,6,7.3
			c-4.6,6.1-0.4,10.8,2.5,15.7c1.2,3.2,2.2,6.6,3,9.9c0.6,3,2,3.5,4.5,2.8l0.4,0.3c0.7,3.1-5.2,2.8-3.2,6.5c0.1,1.9,0.1,3.7,0.2,5.6
			c-1.2,2.9-2.4,5.8,1.2,8c0.1,0.9,0.1,1.8,0.2,2.7c-1.6,2-1.9,3.9,0.7,5.3c1,1.1,1.4,2.6,1,4c-1.4,0.4-4.4-1.1-3,2.6
			c-1.9,7.5-3.3,15.3-6,22.5c-1.1,2.9-3.3,7.2-8.3,6.2c0-1.4,0-2.7,0-4.1c2.2-4.9,1.3-10.4,3-15.4c1-1,0.9-2.2,0.4-3.4
			c0.2-1,0.3-2.1,0.5-3.1c2.4-2.8,1.2-5.9,0.8-9c0.6-2.3,1.1-4.7,1.7-7c2-1.3,2-2.7,0.2-4.1"/>
		<path d="M338.2,374.7c2.4,0.8,3,2.7,3.2,4.9c-18.5,8.8-36.5,18.2-49.7,34.5c-4.5,5.6-9.4,11.4-6.5,19.6c0.5,1.4,0.3,3-1.1,3.4
			c-1.5,0.3-3,0.2-4.5-0.3c-2-0.7-0.7-2-0.4-3.2c0.6-2.4,2.5-5.2-2.1-6c-1.1-0.3-1.7-1.4-1.4-2.5c0-0.1,0-0.1,0.1-0.2
			c0.4-1.4,1.5-1.5,2.6-1.3c1.7,0.2,3.3,0.2,3.8-1.7c2.1-7.1,7.1-12.1,12.4-16.8c0.2-0.1,0.3-0.3,0.4-0.5c-1.7-7.6,5.4-5.5,8.5-7.3
			c4.2-2.4,3.8-4.4-0.5-7.3c13.1-0.9,22.8-7.3,33.2-12C337.9,377.4,338.1,376.1,338.2,374.7"/>
		<path d="M346.4,402.8c0,0.9,0,1.9,0.1,2.8c-9.6,5.8-19.5,11.2-28.9,17.5c-10.2,6.7-18.2,16.3-23.1,27.5c-0.6,1.7-0.7,3.5-0.2,5.2
			c1.5,6.7,1.3,6.9-5.8,4.7c-0.1-3.2,5.2-7.5-2-9.1c-0.4-0.1-0.8-1.6-0.7-2.3c0.2-1.4,1.5-1.5,2.6-1.2c2.4,0.5,3.7-0.4,4.5-2.7
			c1.8-5.9,5.7-10.4,10.3-14.2c2.6-2.2,4.5-4,0.2-7.6c5.9,0.2,10.3-0.6,13.3-4.2c2-2.5-2.8-2.4-2.1-5
			C326.3,413.9,335.6,406.4,346.4,402.8"/>
		<path d="M374.5,400.6c5.5,13.4,18.6,18,29.7,24.5c6.5,3.8,13.9,7.1,21.9,2.9c1.8-1,4-0.4,4.6,1.2s0.2,3.8-0.4,5.6
			c-0.9,2.4-2.5,0.3-3.9,0.3c-3.2-0.1-8-4.4-8.8,3.1c-0.2,1.7-2.4,1.8-4,1.7c-2.7-0.2-1.6-2.3-1.4-3.5c0.4-2.6-0.8-3.9-3.1-4.2
			c-9.1-1.5-16.1-6.6-23-12.2c-1.8-1.5-3.7-4.5-6.1-0.2c-1.2,2-3.3,0.8-3-1c0.9-5.5-3.2-8.5-5.3-12.5
			C372.3,404.1,374.5,402.9,374.5,400.6"/>
		<path d="M314.3,339.6l1-1c1.2,0.2,2.3,0.2,3-1c11.9,0.2,23.9,0.5,35.8,0.7c5.2,0.1,10.1-0.5,14.3-4.2c2.1-1.9,5.9-2.5,7.1-0.6
			c1.6,2.5-0.2,5.1-3.2,6.9c-4.4,2.6-8.7,4.1-14,3.5c-7.2-0.8-14.5-0.8-21.8-1.2l-3.5,0.2c-10.5-0.8-21.2-2.1-30.6,4.6
			c-0.1-2.1-0.2-4.1-0.2-6.2c3.4-2.7,7.3-0.9,11-1c0.4,0,0.8-0.2,1-0.5"/>
		<path d="M321.4,362.9c-1.4,2.7-2.7,5.4-4,8.2c-2.7-0.5,0.1-4.6-3-4.2c-3.9,0.5-4.5,4.4-6.3,7.6c-1.3-2.7-2.4-4.7-5.9-3.1
			c-3.5,1.5-7.4,1.7-11,0.6c-1-0.3-1.9-1-3,0.1c-0.9,0.9,0.2,4-2.5,2.6c-1.6-0.8-0.6-2.8-1-4.2c-1.4-4.8,1.9-3.8,4.2-3.3
			c8.7,2,17.9,0.2,25.2-4.9C316.2,365.1,319.2,360.1,321.4,362.9"/>
		<path d="M374.5,400.6c0,2.3-2.2,3.5-2.8,5.5l-2.4-1.7c-2.9-3.3-4.2,2.3-6.7,1.2l-0.4-0.3c0.1-5.4-1.9-10.1-5-14.4
			c0.1-1.8-0.2-3.9,2.6-3.9C364.3,391.9,368.1,397.6,374.5,400.6"/>
		<path d="M302.3,341.2c0.1,2.1,0.2,4.1,0.2,6.2c-0.9,1.3-3.2,3-3.4,2.4c-2.5-5.9-6.4-3-10.2-2.1c-1.6,0.4-3.4-0.2-3.3-2.2
			c0.1-2.4,1.5-4.3,4.1-4.4C293.9,341,298.1,341.1,302.3,341.2"/>
		<path d="M267.1,337.3c-0.5-7.1-0.5-14.3-2.4-21.2l1.8-1.7c3.5,7.9,5.1,16.4,4.7,25c-0.3,2.6,0.2,5.3,1.5,7.6l-1.8,2
			c-3.4-1.4-3.2-5.5-5.4-7.7C267.5,340.6,268.2,339.4,267.1,337.3"/>
		<path d="M266.5,314.5l-1.8,1.7c-0.9-0.8-1.3-1.9-1.2-3.1c1.7-2.4,2.7-4.8,7-3.2c3.9,1.4,8.7,0.3,13.1,0.5c2.3,0.1,4.9-0.9,6.8,1.4
			c-6.4,0.1-12.8,0.3-19.2,0.4C269.2,312.2,267.1,311.6,266.5,314.5"/>
		<path d="M345.2,464.9c0,1.4,0,2.7,0,4.1c-3.3,0.4-6.6,0.8-9.9,1.1c-2.4,0.2-3.4-1.8-4.6-3.3c-0.1-0.6,0.2-1.2,0.6-1.7
			c1.9-1.1,2.5,1,3.8,1.5C338.8,468.1,341.8,465.4,345.2,464.9"/>
		<path d="M359.8,386.9c-2.8,0-2.5,2.1-2.6,3.9c-1.2,0-1.8,0.9-2.5,1.7c-2.9-4.9-7-9.6-2.5-15.7c1.2,0.6,2.1,1.9,2.3,3.2
			c-2,3.6-0.3,4.4,3,4C358.7,384.5,359.6,385.6,359.8,386.9"/>
		<path d="M362.6,405.6c2.5,1.1,3.8-4.5,6.7-1.2c-1.6,4.8-6.5,5.4-10,7.7C357.3,408.4,363.3,408.6,362.6,405.6"/>
		<path d="M369.2,312c5-2.9,10.4,0.8,15.5-1C379.7,314.8,374.4,312.8,369.2,312"/>
		<path d="M333.1,342.7l3.5-0.2c-1.2,1.9,0.3,3.8,0.1,5.7c-1.4,0.7-2.3,2.1-2.2,3.7c-0.7-2-4.2,3.3-3.8-1.5c0.4-0.1,0.8-0.1,1.1-0.2
			L331,349C332.8,347.3,334,345.3,333.1,342.7"/>
		<path d="M321.4,362.9c-2.2-2.8-5.2,2.2-7.4-0.7c1.3-2.7,4.4-2.4,6.5-3.8l2.3,2.4L321.4,362.9"/>
		<path d="M402.1,341.2c0.1-3.3-0.3-6.6,2.2-9.3C405.1,335.4,404.1,338.4,402.1,341.2"/>
		<path d="M346.4,393.4c2.2,2.4,4.2,4.9,1.3,8.2C347.3,398.9,346.8,396.2,346.4,393.4"/>
		<path d="M360.7,425.6c-3.6-2.2-2.4-5-1.2-8C360.9,420.1,360.6,422.9,360.7,425.6"/>
		<path d="M350,434c0.4,3,1.6,6.2-0.8,9C348.7,440,348.1,436.9,350,434"/>
		<path d="M341.6,380c3.7,1.6,1.7,4.8,2,7.3C339.3,385.8,341.9,382.5,341.6,380"/>
		<path d="M390.6,310.7c3-2.3,5.8-2.2,8.1,1L390.6,310.7"/>
		<path d="M399.9,329.3c2.1,2.3,2.2,4.6-0.1,6.8C399.8,333.9,399.8,331.6,399.9,329.3"/>
		<path d="M301.2,311.6c2.3-1.4,4.5-1.6,6.6,0.5C305.6,312.8,303.2,312.7,301.2,311.6"/>
		<path d="M267.1,336.3c1.2,2,0.5,3.2-1.5,4C262.9,337.8,264.9,337,267.1,336.3"/>
		<path d="M411.9,307c2-2.5,4.7-2.9,7.6-2.5C417.3,306,414.6,306.9,411.9,307"/>
		<path d="M350.3,408.1c2.1,1.5,2,3.3,0.6,5.3C349.8,411.9,349.6,409.9,350.3,408.1"/>
		<path d="M361.7,433.7c-2.6-1.5-2.3-3.3-0.7-5.3C361.2,430.1,361.4,431.9,361.7,433.7"/>
		<path d="M322.8,360.8l-2.3-2.4c1.4-1.5,3.1-4.4,5-2.4S324.8,359.7,322.8,360.8"/>
		<path d="M390.5,353.3c-0.4,2.9-1.5,4-4,1.5L390.5,353.3"/>
		<path d="M357.5,384.1c-3.3,0.4-5-0.4-3-4L357.5,384.1"/>
		<path d="M351.8,422.9c1.8,1.5,1.8,2.8-0.2,4.1C351.2,425.7,351.2,424.2,351.8,422.9"/>
		<path d="M346.3,369.5c-3-0.6-2.5-2.8-2.1-4.9C344.9,366.3,345.6,367.9,346.3,369.5"/>
		<path d="M359.6,440.2c-1.4-3.7,1.7-2.1,3-2.6C362.6,439.7,360.6,439.4,359.6,440.2"/>
		<path d="M337.2,369.5c1.2,0.6,1.7,1.4,0.6,2.5c-0.8-0.5-1.1-1.5-0.7-2.3C337.1,369.6,337.1,369.5,337.2,369.5"/>
		<path d="M399.1,318.8c1,0.8,1,1.6,0,2.4c-0.7-0.4-0.9-1.3-0.5-1.9C398.7,319.1,398.9,318.9,399.1,318.8"/>
		<path d="M403.4,318.5c-1.3-1.3-0.5-2,0.8-2.6C404.6,316.9,404.3,318,403.4,318.5"/>
		<path d="M354.4,313.4c0.7-1.3,1.5-1.9,2.6-0.5C356.4,313.7,355.3,313.9,354.4,313.4"/>
		<path d="M344.3,388.1c1.6,0.3,2.8,0.9,1.2,2.6C345.1,389.9,344.7,389,344.3,388.1"/>
		<path d="M318.4,337.5c-0.7,1.2-1.8,1.3-3,1C316.2,337.4,317,336.7,318.4,337.5"/>
		<path d="M348.7,446.1c0.4,1.2,0.6,2.4-0.4,3.4C347.2,448.2,347.7,447.1,348.7,446.1"/>
		<path d="M398.4,339.5c0.3,1.4,0.1,2.6-1.3,3.3C396.7,341.6,397.2,340.2,398.4,339.5"/>
		<path d="M404.1,326.7c-1.3-0.6-1.7-1.5-0.5-2.6C404.4,324.7,404.6,325.9,404.1,326.7"/>
		<path d="M398.9,350c-0.3-1.6,0-2.9,1.9-3.3C400.6,348,400,349.2,398.9,350"/>
		<path d="M273.3,348c0.6,0.6,0.4,1.2-0.2,1.4c-0.8,0.2-1.7-0.2-1.9-1.1v-0.1L273.3,348"/>
		<path d="M393.2,349.2c0.1,1.5-0.3,2.5-1.8,3C391.1,350.9,391.9,349.6,393.2,349.2"/>
		<path d="M338.8,353.5c-1.7-0.7-1.7-2-1.3-3.5C338.7,350.8,339.2,352.2,338.8,353.5"/>
		<path d="M314.3,339.6c-0.2,0.3-0.6,0.5-1,0.5C313.6,339.8,313.9,339.6,314.3,339.6"/>
		<path d="M331.1,349.1c0.3,0.4,0.5,0.8,0.8,1.2c-0.4,0.1-0.7,0.1-1.1,0.2L331.1,349.1"/>
		<path d="M273.3,348l-2.2,0.2c-0.1-0.1-0.1-0.1-0.1-0.2l1.8-2C272.9,346.7,273.1,347.3,273.3,348"/>
	</g>
	<g>
		<path d="M119.3,148.9c0.3,2.7,0.6,5.5,0.9,8.2c-1.1,3.6-1.8,7.1,0.4,10.6c1.3,3,2.6,6,1.3,9.3c-1.7,0-2.6,0.8-2.6,2.5
			c-1.9,11.6-2.7,23.5-5.9,34.8c-1,3.4-3.7,6.5-5.8,9.5c-1.2,1.6-2.2,0.7-2.7-0.9c-2.3-1.7-1.3-3.5-0.1-5.3c3-9.9,2.7-20.2,3.4-30.4
			c1.1-16.3,4.7-32.6,2.1-49.1c-2.2-13.8-4.4-27.4-7.9-41c-2.4-9.5-6.6-19.3-5.8-30c0.6-8.2-2.5-16.6-2.2-25.1l2.7-0.3l-0.2,0.4
			l0.1-0.4c-0.4,1.2-0.3,2.3,0.9,3c0.2,1,0.4,2.1,0.6,3.1c-0.6,1.5-0.6,2.8,1,3.6c1.9,2.6,2.3,5.7,2.7,8.7c-0.2,2.6,0.7,5.2,2.3,7.2
			c0.6,2.8,1.3,5.7,1.9,8.5c-0.5,1.4-0.6,2.7,1,3.6c1.9,3.3,3,7,3.3,10.8c-1.2,1.5-1.1,2.8,0.5,3.9l0.9,4.1
			c-1.1,2.7,0.4,4.6,1.9,6.5l0.7,5.5c-1.1,1-0.7,1.8,0.4,2.5c0.2,1.1,0.4,2.2,0.5,3.2c-0.4,1.4-0.5,2.6,0.9,3.5
			c2.4,7.3,3.2,15.1,2.4,22.8C117.5,144.7,117.4,146.9,119.3,148.9"/>
		<path d="M156.8,122.6c-1.1,3.7-0.1,7.3-4.6,7.7c1.4-14.8-8.5-25.7-13.2-39.2c4.4-0.5,6.2,2,7.3,4.8c5.2,12.6,13.4,23.5,21.8,33.9
			c9.2,11.5,21.5,20,35.5,24.4c3,0.9,6.2,0.7,9.2-0.3c2.1-0.6,4.1-0.6,5.5,1.1c1.8,2.1-0.7,3.7-1.3,5.2c-1,2.5-2.8,0.2-4.4-0.2
			c-3.6-0.9-7.6-3.6-10.1,2.1c-0.7,1.5-2.8,1.2-4.3,0.9c-2.7-0.5-1.3-2.4-0.9-3.6c0.7-2.3-0.5-3.5-2.4-3.9
			c-8.9-2.3-15.6-7.9-21.9-14.2c-1.1-1.1-2.6-3.1-3.7-2.2c-8.6,6.7-4-1.5-4.8-4C163.2,130.6,160.2,127,156.8,122.6"/>
		<path d="M44.3,132.9c3.8-4.8,7.7-9.7,11.5-14.5c2.6-3,4.5-6.6,5.3-10.5c0.6-3.6-0.3-8.1,6.3-7.3c2.4,0.3,2.9-4,4.1-6.3
			c0.8-1.7,1.9-3.1,3.8-3.4c1.1-0.1,2.2,0.6,2.5,1.7c0.8,2.1-0.5,3.2-1.7,4.6c-6.2,7.5-11.9,15.4-16.8,23.8
			c-3.3,5.5-8.6,9.4-13.5,13.5L44.3,132.9"/>
		<path d="M32.3,145.9c2.1,0.9,1.7,2.5,0.5,3.5c-5.7,4.8-8.5,10.8-9.8,18.1c-0.3,1.7-1.5,5.7-5.2,4.7c-4.1-1.1-2.6-4.3-1.9-7.1
			c2.1-8.6,8.6-13.7,15.2-18.7C31.4,146.2,31.8,146,32.3,145.9"/>
		<path d="M104.7,217.6c-1.2,1.8-2.1,3.6,0.1,5.3c-5,0.5-10.8,5.2-14.1-2.7c-1-2.4-2.4-4.8,0.5-7.7
			C93.1,221.8,99.2,218.8,104.7,217.6"/>
		<path d="M97,41.7L94.2,42c-1-2.6-2.1-5.2,0.8-7.8C97,36.6,96.4,39.3,97,41.7"/>
		<path d="M120.6,167.7c-2.1-3.5-1.6-7-0.4-10.6C121.6,160.6,121.1,164.1,120.6,167.7"/>
		<path d="M119.3,148.9c-1.9-2.1-1.8-4.3-0.3-6.5C120,144.4,120.1,146.8,119.3,148.9"/>
		<path d="M39.9,141.2c-0.9,2-1.7,4.4-4.7,4.6c-0.8,0-1.4-0.7-1.4-1.5c0-0.1,0-0.2,0.1-0.3c0.6-2.4,2.5-4.2,4.9-4.7
			C39.6,139,40.2,139.9,39.9,141.2"/>
		<path d="M104.5,67.4c-1.7-2-2.5-4.6-2.3-7.2C103.9,62.3,105.1,64.6,104.5,67.4"/>
		<path d="M114,104.9c-1.5-1.9-3-3.9-1.9-6.6C113.3,100.3,114.7,102.3,114,104.9"/>
		<path d="M111.2,94.2c-1.6-1.1-1.8-2.4-0.5-3.9C111.9,91.5,111.7,92.9,111.2,94.2"/>
		<path d="M43.6,137.2c-0.7,1.6-1.9,3.8-3.6,2.5c-2.2-1.7,0.1-3.3,1.4-4.6L43.6,137.2"/>
		<path d="M99.5,51.5c-1.6-0.9-1.6-2.2-1-3.6C99.5,48.7,99.9,50.2,99.5,51.5"/>
		<path d="M97.9,44.7c-1.2-0.7-1.3-1.8-0.9-3C98.1,42.4,98.6,43.4,97.9,44.7"/>
		<path d="M119.2,179.5c0-1.8,0.9-2.5,2.6-2.5C121.8,178.7,120.2,178.8,119.2,179.5"/>
		<path d="M116.6,119.6c-1.4-0.9-1.3-2.2-0.9-3.5C116.8,116.9,117.2,118.4,116.6,119.6"/>
		<path d="M115.2,112.9c-1.2-0.6-1.5-1.4-0.4-2.5c0.8,0.4,1.1,1.3,0.7,2.1C115.4,112.6,115.3,112.8,115.2,112.9"/>
		<path d="M107.4,79.5c-1.6-0.9-1.5-2.1-1-3.6C107.5,76.8,107.9,78.3,107.4,79.5"/>
		<path d="M44.3,132.9l1.6,1.6C44.2,135.1,43.6,134.6,44.3,132.9"/>
		<path d="M43.6,137.2l-2.2-2.1C43.5,134.4,44.3,135.1,43.6,137.2"/>
	</g>
	<g>
		<path d="M280.3,121.1c-0.2-4.3-3.5-3.7-6.3-4c-1.9-0.2-4.6,0.2-5-2.2c-0.5-3.1,2.7-2.6,4.3-2.6c6.4-0.2,8-3.5,7.5-9.5
			c-0.6-9.7-0.2-19.5-1.7-29.1c-0.6-3.1-0.1-6.2,1.3-9c0.7-1.2,1.7-2.8,3-1.9c5.7,4.1,11-0.1,16.4-0.3c1.1,1.2,1.9,0.9,2.6-0.4
			l8.1-2.1c1.2,1.3,2,0.7,2.6-0.6l10.1-4.1c2,0,4.3,1.1,5.9-1.2l12.6-5.3c0.5,0.7,0.9,1.4,1.4,2.1c0,0.3-0.3,0.6-0.6,0.6l0,0
			c-2.5,1.5,0.1,3.4-0.4,5.1l-5.2-1.4c-1.2-1.4-2-0.8-2.6,0.5l-7.9,2.6c-3.3,0-7.2-1-6.8,4.6l-10,1c-3.7-0.3-7.5,0.7-10.6,2.8
			c3.3-0.5,6.6,1.5,9.8,0c2.3-0.3,4.6,0,6.8,0.8c2.1,2.2,4.4,1.9,6.7,0.4l29.5,0.2c1,1.2,1.9,0.9,2.5-0.4l4-0.1c1.3,1.7,2.7,1.7,4,0
			h5.3c2.3,2,4.5,2.1,6.7-0.1l17.5-0.8c1.4,1.4,2.1,0.5,2.6-0.9c3.2-0.4,6.1-2.1,9.4-1.7c0.8,1,2.3,1.2,3.4,0.3
			c0.1-0.1,0.3-0.3,0.4-0.4c9.1-1.7,18.2-2.8,27.1,2.6c-4.8,1.4-9.5,2.9-14.3,4.1c-6.3,1.6-9.9,5.9-9.2,12c1,8.9,0,18-2.8,26.5
			c9.3,0,18.2-2.2,26.4,3.1c-9.7,1.6-18,7.7-28,7.8c-2.7,0-6.1-0.8-6.4,4.4c-0.2,3.6-2.9,2.2-4.5,0.2c-0.1-2.1-0.3-4.1-3.3-3.5
			c-5,3-10.4,0.2-15.6,0.8c-1.8-1.6-3.6-1.6-5.3,0.2c-4.5,0.7-8.9,2.8-13.4,0c-4.7-2.2-10.1-2.1-14.7,0.1c-4,0.5-8,0.5-12,0
			c-2.5-2.1-5.2-1.9-7.9-0.4l-13.5-1c-2.1-1.9-4.3-1.8-6.6-0.3l-9.7-0.3c-2.5-1.6-3,3.2-5.5,1.7c-0.4-0.1-0.7-0.4-0.8-0.8
			c-3-3.1-3.6,0.5-3.7,1.8c-0.4,9.7-1.7,19.4,0.7,29.1c0.3,1.2,1.8,2.4,0,3.3c-1,0.4-2.2,0.5-3.2,0.2c-1.9-0.4-1.4-1.7-1.2-3.1
			c0.7-5.9,1.2-11.9-0.1-17.8c-0.3-1.4-0.5-2.8-0.8-4.1C279.2,127.3,282.4,124.4,280.3,121.1 M324.6,76.3c-11.3-0.3-22.6-2.3-34-1.6
			c-4.4,0.3-5.1,1.8-4.7,5.7c0.9,8.8,1.4,17.6,1.9,26.5c0.2,3.6,2.5,4.5,5.3,4.7c4.2,0.3,8.5-0.3,12.6,0.3c27.9,4.5,55.9,1,83.8,0.8
			c7.5-0.1,13.9-2.4,16.6-11.3c2.5-8.1-0.3-15.9,0.5-23.8c0.4-3.4-3-3.2-5.5-3c-7.2,0.7-14.4,1.3-21.5,1.8
			C361.2,77.5,342.9,76,324.6,76.3"/>
		<path d="M280.4,134.5c1.2,5.9,0.8,11.9,0.1,17.8c-0.2,1.4-0.7,2.7,1.2,3.1c1.1,0.3,2.2,0.2,3.2-0.2c1.8-0.9,0.3-2.1,0-3.3
			c-2.4-9.6-1.1-19.4-0.7-29.1c0-1.3,0.7-4.9,3.7-1.8c-2.1,1.2-2.1,3.2-2.1,5.2c0,5.3,0,10.7,0,16c-0.1,4.8,0.7,9.3,4.2,12.9
			c1.3,1.4,2,3.1,0.8,4.8s-2.6,0.8-4-0.2c-3.8-2.7-4,0.8-4.6,2.9c-1.8,6.4-1.9,13.2-4.6,19.4c-3.1,7.1-4.2,15.1-10.5,20.7
			c-2.6,2.4-3.7,5.3,0.3,8.3c1.2,0.9,5.3,3.1,1.6,6.3c-3,2.6-5.8,3.4-8.3-0.5c-1.6-2.6-3.3-2.6-5.2-0.4c-1.4,1.7-3.5,3-4.4,5
			c-2.4,5.6-4.5,8-8.5,1c-0.8-1.5-3.4-1.8-2.5-4.5s2.1-4.8,5.3-5.3c7.2-1,10.5-5.8,14.3-11.9c12.6-20.2,17.7-42.3,20-65.5
			C279.9,135.2,280.1,134.9,280.4,134.5 M261.1,211.7c-0.3-1.3,0.4-3.3-1.9-3.4c-0.8,0.2-1.5,0.8-1.7,1.7c0,2.3,2,1.6,3.4,1.9
			c0.4,1.9,0.7,3.9,3,4.5c0.5-0.3,0.9-0.8,1-1.4C265.2,212.1,263.3,211.8,261.1,211.7 M279.7,159.1c-3.4,8.5-8.4,16.7-7,26.5
			C278,177.6,278.9,168.3,279.7,159.1 M270,188.3c0.2,7-7.8,9.6-8.3,16.1C266.6,200.1,272.3,196.4,270,188.3"/>
		<path d="M342,48.4c3.3-3.3,7.3-5.7,11-8.4c7.3-5.2,14.6-10.7,14.8-21.1c0-2,1-3.9,2.9-3.9c1.5,0,3.2,1.2,4.4,2.3
			c1.8,1.7-0.6,2.5-1.2,3.7c-1.4,2.7-5.7,5.3-0.3,8.4c1.2,0.7,0.7,2.4,0,3.6c-0.9,1.6-2.3,1.2-3.4,0.4c-2.1-1.6-3.6-1.1-5,0.9
			c-5.1,8-12.7,12.6-21.2,16L342,48.4"/>
		<path d="M288.6,122c2.5,1.5,3-3.3,5.5-1.7c-1.5,3.8-1.5,7.3,1.9,10.2c1.1,0.9,2.1,2,1,3.3c-1.2,1.5-2.8,0.9-4.1,0
			C288.7,130.9,288.3,126.6,288.6,122"/>
		<path d="M319.7,62.7c-0.4-5.6,3.5-4.6,6.8-4.6c0.3,2.8,4.5,2.9,4.2,6.9C327.2,62.3,323.1,65,319.7,62.7"/>
		<path d="M343.8,122.3c4.7-2.2,10.1-2.2,14.7-0.1C353.7,123,348.7,123,343.8,122.3"/>
		<path d="M309,66.5c-3.2,1.6-6.5-0.5-9.8,0c3.1-2.1,6.8-3.1,10.6-2.8C309.1,64.5,308.2,65.3,309,66.5"/>
		<path d="M280.3,121.1c2.1,3.3-1.1,6.1-0.6,9.3C276.2,127,279.4,124.1,280.3,121.1"/>
		<path d="M323.9,121.9c2.7-1.5,5.4-1.7,7.9,0.4C329.2,123,326.4,122.9,323.9,121.9"/>
		<path d="M342.2,56.4c0.4-1.7-2.1-3.5,0.4-5.1c0.7,1,1.4,2.2,1.9,3.4C345.2,57,344.3,57.5,342.2,56.4"/>
		<path d="M322.4,67.7c-2.3,1.5-4.6,1.8-6.7-0.4C318,66.7,320.2,66.5,322.4,67.7"/>
		<path d="M303.8,120.6c2.3-1.5,4.5-1.6,6.6,0.3C308.2,121.6,305.9,121.5,303.8,120.6"/>
		<path d="M374.6,67.3c-2.2,2.2-4.5,2.1-6.7,0.1L374.6,67.3"/>
		<path d="M371.9,122.2c1.7-1.8,3.4-1.8,5.3-0.2C375.5,122.9,373.6,123,371.9,122.2"/>
		<path d="M329.2,54c-1.6,2.2-3.8,1.1-5.9,1.2C324.9,52.7,327.1,53.8,329.2,54"/>
		<path d="M362.5,67.4c-1.3,1.7-2.7,1.7-4,0C359.8,66.7,361.3,66.7,362.5,67.4"/>
		<path d="M407.9,63.9c-0.8,1.1-2.3,1.3-3.4,0.5c-0.1-0.1-0.3-0.2-0.4-0.4C405.1,62.9,406.8,62.9,407.9,63.9"/>
		<path d="M392.7,121.1c3-0.6,3.2,1.4,3.3,3.5L392.7,121.1"/>
		<path d="M302.4,62c-0.7,1.3-1.5,1.7-2.6,0.4C300.5,61.6,301.6,61.4,302.4,62"/>
		<path d="M313.2,59.3c-0.6,1.3-1.4,1.9-2.6,0.6C311.2,59.1,312.3,58.8,313.2,59.3"/>
		<path d="M334.4,55.5c0.7-1.3,1.5-1.9,2.6-0.5C336.3,55.7,335.3,55.9,334.4,55.5"/>
		<path d="M394.7,65.6c-0.5,1.4-1.2,2.3-2.6,0.9C392.8,65.8,393.5,65.2,394.7,65.6"/>
		<path d="M354.5,67.5c-0.7,1.2-1.5,1.6-2.5,0.4C352.5,67,353.7,66.9,354.5,67.5L354.5,67.5"/>
		<path d="M342,48.4l2,2c-0.1,0.3-0.4,0.5-0.8,0.4c-0.5-0.7-1-1.4-1.4-2.1L342,48.4"/>
		<path d="M279.7,159.1c-0.8,9.2-1.7,18.4-7,26.5C271.3,175.8,276.3,167.6,279.7,159.1"/>
		<path d="M270,188.3c2.2,8-3.5,11.8-8.3,16.1C262.2,197.9,270.2,195.3,270,188.3"/>
		<path d="M261.1,211.7c2.2,0,4.1,0.4,3.7,3.3c-0.1,0.6-0.5,1.1-1,1.4c-2.3-0.5-2.6-2.5-3-4.5L261.1,211.7z"/>
		<path d="M260.9,211.9c-1.3-0.3-3.4,0.4-3.4-1.9c0.2-0.8,0.9-1.4,1.7-1.7c2.3,0,1.6,2,1.9,3.4L260.9,211.9z"/>
	</g>
</g>
</svg>
